<svg width="25" height="24" viewBox="0 0 25 24" fill="none" xmlns="http://www.w3.org/2000/svg">
<path d="M12.5 12C10.5 9.33 8.5 8 6.5 8C5.43913 8 4.42172 8.42143 3.67157 9.17157C2.92143 9.92172 2.5 10.9391 2.5 12C2.5 13.0609 2.92143 14.0783 3.67157 14.8284C4.42172 15.5786 5.43913 16 6.5 16C8.5 16 10.5 14.67 12.5 12ZM12.5 12C14.5 14.67 16.5 16 18.5 16C19.5609 16 20.5783 15.5786 21.3284 14.8284C22.0786 14.0783 22.5 13.0609 22.5 12C22.5 10.9391 22.0786 9.92172 21.3284 9.17157C20.5783 8.42143 19.5609 8 18.5 8C16.5 8 14.5 9.33 12.5 12Z" stroke="white" stroke-width="2" stroke-linecap="round" stroke-linejoin="round"/>
</svg>
