<svg width="25" height="24" viewBox="0 0 25 24" fill="none" xmlns="http://www.w3.org/2000/svg">
<path d="M7.5 16.3008C9.7 16.3008 11.5 14.4708 11.5 12.2508C11.5 11.0908 10.93 9.99078 9.79 9.06078C8.65 8.13078 7.79 6.75078 7.5 5.30078C7.21 6.75078 6.36 8.14078 5.21 9.06078C4.06 9.98078 3.5 11.1008 3.5 12.2508C3.5 14.4708 5.3 16.3008 7.5 16.3008Z" stroke="white" stroke-width="2" stroke-linecap="round" stroke-linejoin="round"/>
<path d="M13.0598 6.59953C13.7476 5.50066 14.2351 4.28858 14.4998 3.01953C14.9998 5.51953 16.4998 7.91953 18.4998 9.51953C20.4998 11.1195 21.4998 13.0195 21.4998 15.0195C21.5056 16.4018 21.1007 17.7547 20.3366 18.9066C19.5726 20.0586 18.4837 20.9577 17.208 21.49C15.9323 22.0224 14.5273 22.1639 13.171 21.8968C11.8148 21.6297 10.5684 20.9659 9.58984 19.9895" stroke="white" stroke-width="2" stroke-linecap="round" stroke-linejoin="round"/>
</svg>
