<svg width="25" height="24" viewBox="0 0 25 24" fill="none" xmlns="http://www.w3.org/2000/svg">
<path d="M18.87 2.62913L14.5 6.99913L12.91 5.40913C12.5353 5.03663 12.0284 4.82755 11.5 4.82755C10.9716 4.82755 10.4647 5.03663 10.09 5.40913L8.5 6.99913L17.5 15.9991L19.09 14.4091C19.4625 14.0344 19.6716 13.5275 19.6716 12.9991C19.6716 12.4708 19.4625 11.9639 19.09 11.5891L17.5 9.99913L21.87 5.62913C22.2678 5.23131 22.4913 4.69174 22.4913 4.12913C22.4913 3.56652 22.2678 3.02696 21.87 2.62913C21.4722 2.23131 20.9326 2.00781 20.37 2.00781C19.8074 2.00781 19.2678 2.23131 18.87 2.62913Z" stroke="white" stroke-width="2" stroke-linecap="round" stroke-linejoin="round"/>
<path d="M9.5 8C7.5 11 5.5 11.5 2.5 12L10.5 22C12.5 21 16.5 17 16.5 15" stroke="white" stroke-width="2" stroke-linecap="round" stroke-linejoin="round"/>
<path d="M15 17.5L5 15" stroke="white" stroke-width="2" stroke-linecap="round" stroke-linejoin="round"/>
</svg>
